{
	"asset":{
		"generator":"Khronos glTF Blender I/O v4.2.70",
		"version":"2.0"
	},
	"scene":0,
	"scenes":[
		{
			"name":"Scene",
			"nodes":[
				12
			]
		}
	],
	"nodes":[
		{
			"mesh":0,
			"name":"Object_3",
			"translation":[
				0,
				0,
				2.2294118480203906e-06
			]
		},
		{
			"children":[
				0
			],
			"name":"3DSMeshMatrix",
			"rotation":[
				0.4984893798828125,
				-0.5015060305595398,
				0.5015060901641846,
				0.4984894096851349
			],
			"translation":[
				0,
				6.398112773895264,
				17.680849075317383
			]
		},
		{
			"mesh":1,
			"name":"Object_12",
			"translation":[
				0,
				0,
				2.253451839351328e-06
			]
		},
		{
			"children":[
				2
			],
			"name":"3DSMeshMatrix.003",
			"rotation":[
				0.4984893798828125,
				-0.5015060305595398,
				0.5015060901641846,
				0.4984894096851349
			],
			"translation":[
				0,
				6.398112773895264,
				17.680850982666016
			]
		},
		{
			"children":[
				3
			],
			"name":"grp1_2",
			"translation":[
				0.10860169678926468,
				0.3981155753135681,
				-0.318823903799057
			]
		},
		{
			"mesh":2,
			"name":"Object_6",
			"translation":[
				0,
				0,
				2.253451839351328e-06
			]
		},
		{
			"children":[
				5
			],
			"name":"3DSMeshMatrix.001",
			"rotation":[
				0.4984893798828125,
				-0.5015060305595398,
				0.5015060901641846,
				0.4984894096851349
			],
			"translation":[
				0,
				6.398112773895264,
				17.680850982666016
			]
		},
		{
			"children":[
				6
			],
			"name":"grp2",
			"translation":[
				0.10860169678926468,
				0.3981155753135681,
				-0.318823903799057
			]
		},
		{
			"mesh":3,
			"name":"Object_9",
			"translation":[
				0,
				0,
				2.253451839351328e-06
			]
		},
		{
			"children":[
				8
			],
			"name":"3DSMeshMatrix.002",
			"rotation":[
				0.4984893798828125,
				-0.5015060305595398,
				0.5015060901641846,
				0.4984894096851349
			],
			"translation":[
				0,
				6.398112773895264,
				17.680850982666016
			]
		},
		{
			"children":[
				9
			],
			"name":"grp3",
			"translation":[
				0.10860169678926468,
				0.3981155753135681,
				-0.318823903799057
			]
		},
		{
			"children":[
				1,
				4,
				7,
				10
			],
			"name":"grp1",
			"rotation":[
				-0.4984894394874573,
				0.5015060901641846,
				-0.5015061497688293,
				0.4984894394874573
			],
			"translation":[
				-18.000001907348633,
				0,
				5.999999523162842
			]
		},
		{
			"children":[
				11
			],
			"name":"Sketchfab_model",
			"rotation":[
				-0.70710688829422,
				0,
				0,
				0.7071066498756409
			],
			"scale":[
				0.014272443950176239,
				0.014272445812821388,
				0.014272445812821388
			]
		}
	],
	"materials":[
		{
			"doubleSided":true,
			"name":"material",
			"pbrMetallicRoughness":{
				"baseColorTexture":{
					"index":0
				},
				"metallicFactor":0.25227272510528564,
				"roughnessFactor":0.6000000238418579
			}
		}
	],
	"meshes":[
		{
			"name":"Object_0",
			"primitives":[
				{
					"attributes":{
						"POSITION":0,
						"NORMAL":1,
						"TEXCOORD_0":2
					},
					"indices":3,
					"material":0
				}
			]
		},
		{
			"name":"Object_3",
			"primitives":[
				{
					"attributes":{
						"POSITION":4,
						"NORMAL":5,
						"TEXCOORD_0":6
					},
					"indices":7,
					"material":0
				}
			]
		},
		{
			"name":"Object_1",
			"primitives":[
				{
					"attributes":{
						"POSITION":8,
						"NORMAL":9,
						"TEXCOORD_0":10
					},
					"indices":11,
					"material":0
				}
			]
		},
		{
			"name":"Object_2",
			"primitives":[
				{
					"attributes":{
						"POSITION":12,
						"NORMAL":13,
						"TEXCOORD_0":14
					},
					"indices":15,
					"material":0
				}
			]
		}
	],
	"textures":[
		{
			"sampler":0,
			"source":0
		}
	],
	"images":[
		{
			"bufferView":4,
			"mimeType":"image/jpeg",
			"name":"goldbluemarble"
		}
	],
	"accessors":[
		{
			"bufferView":0,
			"componentType":5126,
			"count":3000,
			"max":[
				570.1160278320312,
				109.27387237548828,
				598.8030395507812
			],
			"min":[
				-399.82110595703125,
				-112.3410415649414,
				5.762475490570068
			],
			"type":"VEC3"
		},
		{
			"bufferView":1,
			"componentType":5126,
			"count":3000,
			"type":"VEC3"
		},
		{
			"bufferView":2,
			"componentType":5126,
			"count":3000,
			"type":"VEC2"
		},
		{
			"bufferView":3,
			"componentType":5123,
			"count":3000,
			"type":"SCALAR"
		},
		{
			"bufferView":5,
			"componentType":5126,
			"count":1073,
			"max":[
				476.5542907714844,
				130.9740753173828,
				570.300048828125
			],
			"min":[
				-448.0249328613281,
				-135.7866668701172,
				40.755794525146484
			],
			"type":"VEC3"
		},
		{
			"bufferView":6,
			"componentType":5126,
			"count":1073,
			"type":"VEC3"
		},
		{
			"bufferView":7,
			"componentType":5126,
			"count":1073,
			"type":"VEC2"
		},
		{
			"bufferView":8,
			"componentType":5123,
			"count":1077,
			"type":"SCALAR"
		},
		{
			"bufferView":9,
			"componentType":5126,
			"count":1075,
			"max":[
				553.928466796875,
				49.62550354003906,
				466.8759460449219
			],
			"min":[
				439.2291259765625,
				-57.25238800048828,
				388.8243103027344
			],
			"type":"VEC3"
		},
		{
			"bufferView":10,
			"componentType":5126,
			"count":1075,
			"type":"VEC3"
		},
		{
			"bufferView":11,
			"componentType":5126,
			"count":1075,
			"type":"VEC2"
		},
		{
			"bufferView":12,
			"componentType":5123,
			"count":1077,
			"type":"SCALAR"
		},
		{
			"bufferView":13,
			"componentType":5126,
			"count":198,
			"max":[
				493.0742492675781,
				31.092424392700195,
				497.198486328125
			],
			"min":[
				482.510498046875,
				-36.80325698852539,
				480.9181823730469
			],
			"type":"VEC3"
		},
		{
			"bufferView":14,
			"componentType":5126,
			"count":198,
			"type":"VEC3"
		},
		{
			"bufferView":15,
			"componentType":5126,
			"count":198,
			"type":"VEC2"
		},
		{
			"bufferView":16,
			"componentType":5123,
			"count":198,
			"type":"SCALAR"
		}
	],
	"bufferViews":[
		{
			"buffer":0,
			"byteLength":36000,
			"byteOffset":0,
			"target":34962
		},
		{
			"buffer":0,
			"byteLength":36000,
			"byteOffset":36000,
			"target":34962
		},
		{
			"buffer":0,
			"byteLength":24000,
			"byteOffset":72000,
			"target":34962
		},
		{
			"buffer":0,
			"byteLength":6000,
			"byteOffset":96000,
			"target":34963
		},
		{
			"buffer":0,
			"byteLength":52892,
			"byteOffset":102000
		},
		{
			"buffer":0,
			"byteLength":12876,
			"byteOffset":154892,
			"target":34962
		},
		{
			"buffer":0,
			"byteLength":12876,
			"byteOffset":167768,
			"target":34962
		},
		{
			"buffer":0,
			"byteLength":8584,
			"byteOffset":180644,
			"target":34962
		},
		{
			"buffer":0,
			"byteLength":2154,
			"byteOffset":189228,
			"target":34963
		},
		{
			"buffer":0,
			"byteLength":12900,
			"byteOffset":191384,
			"target":34962
		},
		{
			"buffer":0,
			"byteLength":12900,
			"byteOffset":204284,
			"target":34962
		},
		{
			"buffer":0,
			"byteLength":8600,
			"byteOffset":217184,
			"target":34962
		},
		{
			"buffer":0,
			"byteLength":2154,
			"byteOffset":225784,
			"target":34963
		},
		{
			"buffer":0,
			"byteLength":2376,
			"byteOffset":227940,
			"target":34962
		},
		{
			"buffer":0,
			"byteLength":2376,
			"byteOffset":230316,
			"target":34962
		},
		{
			"buffer":0,
			"byteLength":1584,
			"byteOffset":232692,
			"target":34962
		},
		{
			"buffer":0,
			"byteLength":396,
			"byteOffset":234276,
			"target":34963
		}
	],
	"samplers":[
		{
			"magFilter":9729,
			"minFilter":9987
		}
	],
	"buffers":[
		{
			"byteLength":234672,
			"uri":"data:application/octet-stream;base64,"
		}
	]
}
